<svg width="32px" height="32px" viewBox="0 0 20 19" xmlns="http://www.w3.org/2000/svg"><g fill="none" stroke="#000" stroke-linecap="round" stroke-linejoin="round" stroke-miterlimit="4.8"><path stroke-width=".317" d="M1.484 1.498h16.887v4.928H1.484z" transform="matrix(1.00192 0 0 .80174 .017 .82)"/><path d="M7.053 1.531l-.005 4.9M12.715 1.495c.027 4.92.015 4.92.015 4.92" stroke-width=".307" transform="matrix(1.00192 0 0 .80174 .017 .82)"/></g><g fill="none" stroke="#000" stroke-linecap="round" stroke-linejoin="round" stroke-miterlimit="4.8"><path stroke-width=".317" d="M1.484 1.498h16.887v4.928H1.484z" transform="matrix(1.00192 0 0 .80174 -.037 11.938)"/><path d="M7.053 1.531l-.005 4.9M12.715 1.495c.027 4.92.015 4.92.015 4.92" stroke-width=".307" transform="matrix(1.00192 0 0 .80174 -.037 11.938)"/></g><g stroke="#000" stroke-linecap="round" stroke-linejoin="round" stroke-miterlimit="4.8"><path d="M18.355 7.553c.028 3.944.016 3.944.016 3.944M18.308 7.472L7.32 7.469M18.352 11.488l-10.988-.002" fill="none" stroke-width=".465"/><path d="M2.654 9.338l2.03-2.096-.005 2.093.001 2.08z" stroke-width=".546"/><path stroke-width=".537" d="M4.937 8.993h4.474v.753H4.937z"/></g></svg>