<svg width="32" height="32" viewBox="0 0 20 19" xmlns="http://www.w3.org/2000/svg"><g fill="none" stroke="#000" stroke-linecap="round" stroke-linejoin="round" stroke-miterlimit="4.8"><path stroke-width=".317" d="M1.484 1.498h16.887v4.928H1.484z" transform="matrix(1.00192 0 0 .80174 .017 .82)"/><path d="M7.053 1.531l-.005 4.9M12.715 1.495c.027 4.92.015 4.92.015 4.92" stroke-width=".307" transform="matrix(1.00192 0 0 .80174 .017 .82)"/></g><g fill="none" stroke="#000" stroke-linecap="round" stroke-linejoin="round" stroke-miterlimit="4.8"><path stroke-width=".317" d="M1.484 1.498h16.887v4.928H1.484z" transform="matrix(1.00192 0 0 .80174 -.037 11.938)"/><path d="M7.053 1.531l-.005 4.9M12.715 1.495c.027 4.92.015 4.92.015 4.92" stroke-width=".307" transform="matrix(1.00192 0 0 .80174 -.037 11.938)"/></g><path d="M18.355 7.553c.028 3.944.016 3.944.016 3.944M18.308 7.472L7.32 7.469M18.352 11.488l-10.988-.002" fill="none" stroke="#000" stroke-width=".465" stroke-linecap="round" stroke-linejoin="round" stroke-miterlimit="4.8"/><path d="M2.048 7.402l3.975 4.018v0M6.058 7.448l-4.045 3.893" stroke="#000" stroke-width="1.037" stroke-linecap="round" stroke-linejoin="round" stroke-miterlimit="4.8"/></svg>